<svg id="Layer_1" data-name="Layer 1" xmlns="http://www.w3.org/2000/svg" viewBox="0 0 512 512"><defs><style>.cls-1{fill:#ffc84d;}.cls-2{fill:#ffb232;}.cls-3{fill:#6b287c;}</style></defs><title>cookie-filled</title><path class="cls-1" d="M501.33,256a154.63,154.63,0,0,1-309.17,5.07c1.71.16,3.41.27,5.17.27A53.35,53.35,0,0,0,250.67,208a45.08,45.08,0,0,0-.59-7.63,53.29,53.29,0,0,0,27.47-82.72A154.64,154.64,0,0,1,501.33,256Z"/><path class="cls-2" d="M395.55,109.26A149.31,149.31,0,1,1,230.63,358.19,154.65,154.65,0,1,0,395.55,109.26Z"/><path class="cls-1" d="M154.67,410.67a26.67,26.67,0,1,0-24.09-37.94,21.29,21.29,0,1,0-13.25,37.94Z"/><path class="cls-3" d="M21.33,400H10.67a10.67,10.67,0,1,0,0,21.33H21.33a10.67,10.67,0,1,0,0-21.33Z"/><path class="cls-3" d="M501.33,400H490.67a10.67,10.67,0,1,0,0,21.33h10.67a10.67,10.67,0,1,0,0-21.33Z"/><path class="cls-3" d="M453.33,400H427.81A165.3,165.3,0,0,0,473.9,150.4a10.67,10.67,0,1,0-16.39,13.66A143.9,143.9,0,0,1,490.67,256c0,79.4-64.6,144-144,144A143.17,143.17,0,0,1,203.57,271.7,64.09,64.09,0,0,0,261.33,208c0-.17,0-.34,0-.52a64.48,64.48,0,0,0,37.34-58.15,63.49,63.49,0,0,0-5.91-26.89A142.17,142.17,0,0,1,346.67,112a145.85,145.85,0,0,1,36.63,4.67A10.67,10.67,0,0,0,388.66,96a167.06,167.06,0,0,0-42-5.36,163.08,163.08,0,0,0-73.91,17.45A10.66,10.66,0,0,0,269,124a42.27,42.27,0,0,1,8.36,25.33A42.93,42.93,0,0,1,247,190.16a10.67,10.67,0,0,0-7.43,12A34.16,34.16,0,0,1,240,208a42.72,42.72,0,0,1-42.67,42.67c-1.42,0-2.79-.09-4.17-.22a10.67,10.67,0,0,0-11.66,11A164.37,164.37,0,0,0,265,400H188.38a37.27,37.27,0,0,0-61.24-41.1,31.36,31.36,0,0,0-9.8-1.56A32,32,0,0,0,87.17,400H58.67a10.67,10.67,0,1,0,0,21.33H453.33a10.67,10.67,0,1,0,0-21.33ZM106.67,389.33a10.56,10.56,0,0,1,17.26-8.27,10.67,10.67,0,0,0,16.31-3.81A15.84,15.84,0,0,1,154.67,368a16,16,0,1,1,0,32H117.33A10.68,10.68,0,0,1,106.67,389.33Z"/><path class="cls-3" d="M415.43,129.42a139.08,139.08,0,0,1,17.73,11.44,10.67,10.67,0,0,0,12.92-17,161.86,161.86,0,0,0-20.45-13.2,10.67,10.67,0,0,0-10.2,18.74Z"/><circle class="cls-3" cx="362.67" cy="272" r="16" transform="translate(-86.11 336.11) rotate(-45)"/><circle class="cls-3" cx="400" cy="330.67" r="16" transform="translate(-116.66 379.69) rotate(-45)"/><circle class="cls-3" cx="440" cy="269.33" r="13.33" transform="translate(-61.57 390.01) rotate(-45)"/><circle class="cls-3" cx="328" cy="344" r="13.33" transform="translate(-147.18 332.69) rotate(-45)"/><circle class="cls-3" cx="416" cy="213.33" r="16" transform="translate(-29.01 356.64) rotate(-45)"/><circle class="cls-3" cx="277.33" cy="298.67" r="16" transform="translate(-129.96 283.58) rotate(-45)"/><circle class="cls-3" cx="317.33" cy="221.33" r="13.33" transform="translate(-63.56 289.22) rotate(-45)"/><circle class="cls-3" cx="368" cy="170.67" r="16" transform="translate(-12.9 310.2) rotate(-45)"/></svg>